<?xml version="1.0" standalone="no"?>
<!DOCTYPE svg PUBLIC "-//W3C//DTD SVG 20010904//EN"
 "http://www.w3.org/TR/2001/REC-SVG-20010904/DTD/svg10.dtd">
<svg version="1.0" xmlns="http://www.w3.org/2000/svg"
 width="1024.000000pt" height="1024.000000pt" viewBox="0 0 1024.000000 1024.000000"
 preserveAspectRatio="xMidYMid meet">

<g transform="translate(0.000000,1024.000000) scale(0.100000,-0.100000)"
fill="#ffffff" stroke="none">
<path d="M4850 9024 c-19 -2 -87 -9 -150 -15 -1073 -102 -2092 -690 -2743
-1582 -348 -476 -587 -1040 -687 -1622 -72 -417 -79 -876 -19 -1290 40 -282
148 -671 259 -930 300 -705 795 -1307 1420 -1725 655 -438 1368 -650 2186
-650 535 0 991 84 1454 267 719 285 1332 776 1781 1428 279 404 478 863 583
1345 134 612 125 1277 -25 1840 -262 984 -866 1815 -1699 2338 -493 309 -1066
511 -1640 578 -127 14 -639 28 -720 18z m675 -278 c339 -42 696 -135 985 -258
463 -196 864 -469 1208 -822 290 -298 516 -629 702 -1026 366 -783 443 -1598
230 -2450 -121 -485 -355 -950 -689 -1370 -91 -115 -373 -400 -493 -498 -496
-409 -1025 -664 -1621 -782 -252 -50 -364 -61 -654 -67 -355 -7 -577 12 -868
77 -539 120 -1044 363 -1480 713 -749 602 -1206 1411 -1342 2377 -22 159 -25
726 -5 890 79 621 288 1178 628 1671 125 181 232 308 419 495 357 360 699 590
1177 795 343 147 685 231 1083 268 144 14 566 6 720 -13z"/>
<path d="M2310 5365 c0 -468 -1 -480 -59 -509 -16 -9 -51 -16 -77 -16 -40 0
-51 5 -80 35 l-33 35 -65 -41 c-36 -23 -66 -47 -66 -54 0 -24 47 -81 93 -112
85 -57 231 -69 329 -25 62 27 122 92 150 160 22 56 23 65 26 505 l3 447 -110
0 -111 0 0 -425z"/>
<path d="M3550 5230 l0 -560 100 0 100 0 0 41 0 41 42 -37 c118 -100 330 -80
451 43 87 89 122 190 115 335 -5 116 -41 201 -118 278 -124 124 -321 144 -437
44 -23 -19 -44 -35 -47 -35 -3 0 -6 92 -6 205 l0 205 -100 0 -100 0 0 -560z
m495 27 c144 -81 139 -323 -8 -399 -76 -39 -185 -21 -239 39 -66 73 -64 241 4
324 50 61 167 79 243 36z"/>
<path d="M6440 5583 l0 -207 -27 26 c-58 54 -111 73 -203 73 -103 -1 -172 -28
-248 -99 -160 -150 -178 -429 -38 -599 118 -144 362 -169 489 -49 l27 26 0
-42 0 -42 105 0 105 0 0 560 0 560 -105 0 -105 0 0 -207z m-107 -317 c43 -17
93 -76 106 -123 16 -55 13 -138 -4 -181 -62 -148 -265 -168 -358 -36 -34 49
-46 142 -28 212 14 50 63 109 106 128 39 17 137 18 178 0z"/>
<path d="M2942 5469 c-64 -12 -159 -67 -204 -118 -22 -25 -55 -75 -72 -111
-29 -61 -31 -72 -31 -180 0 -108 2 -119 31 -180 74 -157 230 -241 419 -227
101 8 175 39 243 102 102 94 147 230 125 379 -13 90 -40 150 -98 214 -96 106
-253 153 -413 121z m198 -209 c90 -46 132 -165 100 -282 -44 -156 -269 -188
-364 -51 -23 33 -30 55 -34 111 -3 42 0 84 8 106 15 47 65 105 105 122 46 20
139 17 185 -6z"/>
<path d="M4705 5464 c-155 -50 -262 -193 -272 -367 -13 -195 79 -352 245 -419
47 -19 76 -23 167 -23 105 0 114 2 177 33 64 32 158 119 158 148 0 6 -32 28
-70 48 l-70 37 -42 -35 c-53 -46 -96 -59 -173 -54 -84 5 -137 40 -171 111 -13
29 -24 58 -24 64 0 10 67 13 288 15 l287 3 -2 80 c-3 169 -101 314 -241 355
-65 20 -202 22 -257 4z m213 -172 c36 -16 76 -69 86 -114 l6 -28 -185 0 c-141
0 -185 3 -185 13 0 6 9 30 19 53 42 92 155 125 259 76z"/>
<path d="M5659 5470 c-44 -13 -81 -43 -111 -89 l-28 -45 0 67 0 67 -105 0
-105 0 0 -400 0 -400 105 0 105 0 0 218 c0 233 6 274 47 323 36 43 80 59 158
59 l65 0 0 105 0 105 -52 -1 c-29 0 -65 -4 -79 -9z"/>
<path d="M6974 5460 c-41 -13 -75 -33 -102 -59 -37 -36 -78 -98 -70 -106 2 -2
37 -19 78 -37 l75 -35 36 41 c34 37 40 40 101 44 103 7 158 -36 158 -123 l0
-35 -57 0 c-259 -2 -404 -86 -420 -244 -16 -156 100 -264 272 -254 77 5 123
24 173 71 l32 31 0 -42 0 -42 100 0 100 0 0 259 c0 142 -5 283 -10 312 -14 76
-49 139 -98 176 -56 43 -98 54 -212 59 -76 3 -108 0 -156 -16z m276 -489 c0
-87 -66 -151 -157 -151 -54 0 -88 16 -102 47 -41 90 38 148 207 152 l52 1 0
-49z"/>
<path d="M7908 5465 c-27 -9 -66 -33 -89 -54 -45 -43 -56 -37 -46 24 l6 35
-110 0 -109 0 0 -400 0 -400 110 0 110 0 0 245 c0 266 4 288 54 335 22 20 40
25 95 28 62 4 70 2 100 -24 58 -48 61 -67 61 -339 l0 -245 106 0 105 0 -3 293
c-4 253 -6 298 -22 341 -23 59 -82 121 -142 148 -60 26 -166 32 -226 13z"/>
</g>
</svg>
